<svg width="31" height="27" viewBox="0 0 31 27" fill="none" xmlns="http://www.w3.org/2000/svg">
<path d="M24.5732 12.9082C24.7789 13.4654 24.9646 14.0353 25.1387 14.6113L25.3086 15.1895C26.3087 18.7555 26.8242 22.4745 26.8252 26.2666H26.4512C26.4516 22.518 25.9564 18.8393 24.9443 15.3145L24.9434 15.3135L24.7227 14.5752C24.4945 13.8373 24.245 13.1014 23.9736 12.376L23.9707 12.3701L23.9287 12.2607L24.209 11.9229L24.5732 12.9082ZM19.2881 23.2197C19.5488 23.2032 20.5499 23.1783 21.3545 23.8984V23.8994C21.9211 24.4227 22.2907 25.1943 22.3896 26.2666H22.0107C21.9345 25.4923 21.7035 24.8349 21.2568 24.3545L21.1406 24.2383C20.7599 23.8795 20.3179 23.7294 19.9854 23.666C19.6541 23.603 19.3808 23.62 19.3809 23.6201H7.96582C7.95866 23.6199 7.86725 23.618 7.75 23.624C7.62439 23.6305 7.45542 23.646 7.26465 23.6836C6.93738 23.7481 6.51046 23.8835 6.12695 24.1768L5.96582 24.3125L5.95605 24.3223C5.46404 24.7983 5.22914 25.4787 5.18262 26.248H4.80664C4.85646 25.2342 5.1834 24.4955 5.72656 23.998C6.60841 23.1965 7.80242 23.2028 8.03809 23.2188L8.05859 23.2207H19.2695L19.2881 23.2197ZM13.7256 2.41309L15.0713 7.08984L15.0654 7.12598C14.6523 9.00525 13.883 10.6732 12.7617 12.1016L12.7588 12.1045C11.3737 13.8902 9.52271 15.197 7.23926 16.0381C5.90269 16.5151 4.71317 16.7353 3.85449 16.8262L3.53711 16.8594L3.3877 17.1406C3.00114 17.8671 2.6548 18.6296 2.34863 19.3877L2.3457 19.3965C1.5075 21.5705 1.0491 23.8766 0.983398 26.2666H0.609375C0.675564 23.8288 1.14432 21.4631 2.00195 19.2412C2.36709 18.314 2.78596 17.4256 3.27734 16.5566L3.27637 16.5557L3.32715 16.4678L3.42871 16.459L3.42773 16.458C4.27335 16.3973 5.60159 16.2176 7.10547 15.6621L7.10449 15.6611C9.30132 14.8636 11.1029 13.5827 12.4512 11.8506C13.4999 10.5039 14.2301 8.95691 14.624 7.23633L14.6582 7.08691L14.6172 6.94043L13.0459 1.33789L13.3555 1.12793L13.7256 2.41309ZM28.3301 12.9482L28.1797 13.3213L25.3672 12.1465L24.3691 11.7305L24.6387 11.4062L28.3301 12.9482ZM14.0322 0.820312L14.0332 0.821289C14.9482 1.51419 15.9131 2.18186 16.9141 2.77051L17.3457 3.01855C18.0755 3.44712 18.8401 3.835 19.6006 4.18262L19.7305 4.24219L19.874 4.23633C21.3425 4.17819 22.8259 4.02334 24.2666 3.81152H24.2686C26.0685 3.54207 27.8712 3.17487 29.6387 2.69238L29.6396 2.69336L29.8076 2.64746L29.8691 2.83008V2.83105C30.2785 4.09663 30.4556 5.39434 30.3848 6.70801V6.71484C30.3405 7.75 30.1332 8.76123 29.7871 9.72949L29.4414 9.5791C29.7684 8.64614 29.9591 7.66664 30.0088 6.6748L30.0078 6.67383C30.067 5.679 29.9673 4.68784 29.7295 3.72168L29.585 3.13281L28.998 3.28418C27.4621 3.67895 25.8896 3.99843 24.3193 4.22363H24.3164C22.8095 4.44765 21.2612 4.57965 19.7061 4.65527H19.6611L19.6094 4.63184C18.7751 4.23619 17.9513 3.82653 17.1504 3.36426H17.1494C16.3043 2.87899 15.4594 2.33708 14.6514 1.75879L13.5674 0.983398L13.9258 0.739258L14.0322 0.820312Z" stroke="black" stroke-width="1.2"/>
</svg>
